<svg width="16" height="16" viewBox="0 0 16 16" fill="none" xmlns="http://www.w3.org/2000/svg">
<g opacity="0.6" clip-path="url(#clip0_295_199)">
<path d="M7.99994 0C3.58165 0 4.00543e-05 3.58177 4.00543e-05 8.00006C4.00543e-05 12.4184 3.58165 16 7.99994 16C12.4182 16 16 12.4184 16 8.00006C16 3.58177 12.4182 0 7.99994 0ZM11.3264 7.06951L8.37897 10.4379C8.33181 10.4921 8.27357 10.5356 8.20819 10.5653C8.1428 10.5951 8.07179 10.6106 7.99994 10.6106C7.85468 10.6106 7.71636 10.5475 7.62107 10.4379L4.67365 7.06951C4.49002 6.86026 4.5107 6.54154 4.71991 6.35787C4.92932 6.17424 5.24787 6.19493 5.43154 6.40414L7.99994 9.33893L10.5683 6.40414C10.7522 6.19493 11.0707 6.17424 11.28 6.35787C11.4893 6.54154 11.51 6.86026 11.3264 7.06951Z" fill="#4B2D9F"/>
</g>
<defs>
<clipPath id="clip0_295_199">
<rect width="16" height="16" fill="white" transform="matrix(0 1 -1 0 16 0)"/>
</clipPath>
</defs>
</svg>
