<svg width="16" height="16" viewBox="0 0 16 16" fill="none" xmlns="http://www.w3.org/2000/svg">
<g opacity="0.6">
<path d="M13.395 2.13975H11.635V1.88483C11.635 1.74962 11.5823 1.61994 11.4886 1.52433C11.3948 1.42871 11.2676 1.375 11.135 1.375C11.0024 1.375 10.8752 1.42871 10.7814 1.52433C10.6877 1.61994 10.635 1.74962 10.635 1.88483V2.13975H5.365V1.88483C5.365 1.74962 5.31232 1.61994 5.21855 1.52433C5.12479 1.42871 4.99761 1.375 4.865 1.375C4.73239 1.375 4.60521 1.42871 4.51145 1.52433C4.41768 1.61994 4.365 1.74962 4.365 1.88483V2.13975H2.605C2.04713 2.1411 1.51248 2.36766 1.118 2.7699C0.723521 3.17214 0.50132 3.7173 0.5 4.28614V13.2286C0.50132 13.7975 0.723521 14.3426 1.118 14.7448C1.51248 15.1471 2.04713 15.3737 2.605 15.375H13.395C13.9529 15.3737 14.4875 15.1471 14.882 14.7448C15.2765 14.3426 15.4987 13.7975 15.5 13.2286V4.28614C15.4987 3.7173 15.2765 3.17214 14.882 2.7699C14.4875 2.36766 13.9529 2.1411 13.395 2.13975ZM2.605 3.15941H4.365V3.41433C4.365 3.54955 4.41768 3.67922 4.51145 3.77484C4.60521 3.87045 4.73239 3.92416 4.865 3.92416C4.99761 3.92416 5.12479 3.87045 5.21855 3.77484C5.31232 3.67922 5.365 3.54955 5.365 3.41433V3.15941H10.635V3.41433C10.635 3.54955 10.6877 3.67922 10.7814 3.77484C10.8752 3.87045 11.0024 3.92416 11.135 3.92416C11.2676 3.92416 11.3948 3.87045 11.4886 3.77484C11.5823 3.67922 11.635 3.54955 11.635 3.41433V3.15941H13.395C13.6881 3.15941 13.9691 3.27812 14.1764 3.48943C14.3836 3.70073 14.5 3.98732 14.5 4.28614V5.49445H1.5V4.28614C1.5 3.98732 1.61642 3.70073 1.82365 3.48943C2.03087 3.27812 2.31194 3.15941 2.605 3.15941ZM13.395 14.3757H2.605C2.45819 14.3758 2.31285 14.3459 2.17746 14.2881C2.04208 14.2302 1.91936 14.1453 1.81649 14.0385C1.71362 13.9317 1.63264 13.8051 1.5783 13.6661C1.52396 13.527 1.49734 13.3783 1.5 13.2286V6.51411H14.5V13.2286C14.5027 13.3783 14.476 13.527 14.4217 13.6661C14.3674 13.8051 14.2864 13.9317 14.1835 14.0385C14.0806 14.1453 13.9579 14.2302 13.8225 14.2881C13.6872 14.3459 13.5418 14.3758 13.395 14.3757Z" fill="#4B2D9F"/>
</g>
</svg>
