<svg width="16" height="16" viewBox="0 0 16 16" fill="none" xmlns="http://www.w3.org/2000/svg">
<g opacity="0.6" clip-path="url(#clip0_295_179)">
<mask id="mask0_295_179" style="mask-type:luminance" maskUnits="userSpaceOnUse" x="0" y="0" width="16" height="16">
<path d="M0 0H16V16H0V0Z" fill="white"/>
</mask>
<g mask="url(#mask0_295_179)">
<path d="M7.9935 1.33337C4.3135 1.33337 1.3335 4.32004 1.3335 8.00004C1.3335 11.68 4.3135 14.6667 7.9935 14.6667C11.6802 14.6667 14.6668 11.68 14.6668 8.00004C14.6668 4.32004 11.6802 1.33337 7.9935 1.33337ZM8.00016 13.3334C5.0535 13.3334 2.66683 10.9467 2.66683 8.00004C2.66683 5.05337 5.0535 2.66671 8.00016 2.66671C10.9468 2.66671 13.3335 5.05337 13.3335 8.00004C13.3335 10.9467 10.9468 13.3334 8.00016 13.3334ZM7.8535 4.66671H7.8135C7.54683 4.66671 7.3335 4.88004 7.3335 5.14671V8.29337C7.3335 8.52671 7.4535 8.74671 7.66016 8.86671L10.4268 10.5267C10.6535 10.66 10.9468 10.5934 11.0802 10.3667C11.1136 10.3127 11.1359 10.2526 11.1456 10.1898C11.1554 10.127 11.1524 10.0629 11.1368 10.0014C11.1213 9.93977 11.0935 9.88194 11.0551 9.83132C11.0168 9.7807 10.9686 9.73832 10.9135 9.70671L8.3335 8.17337V5.14671C8.3335 4.88004 8.12016 4.66671 7.8535 4.66671Z" fill="#4B2D9F"/>
</g>
</g>
<defs>
<clipPath id="clip0_295_179">
<rect width="16" height="16" fill="white"/>
</clipPath>
</defs>
</svg>
