<svg width="16" height="16" viewBox="0 0 16 16" fill="none" xmlns="http://www.w3.org/2000/svg">
<path d="M4.87132 11.8507C4.82432 11.8999 4.76796 11.9392 4.70555 11.9663C4.64313 11.9935 4.57593 12.0078 4.50788 12.0086C4.43984 12.0094 4.37232 11.9966 4.3093 11.9709C4.24628 11.9452 4.18902 11.9072 4.1409 11.8591C4.09278 11.811 4.05477 11.7537 4.02909 11.6907C4.00341 11.6277 3.99058 11.5602 3.99137 11.4921C3.99215 11.4241 4.00653 11.3569 4.03365 11.2944C4.06078 11.232 4.1001 11.1757 4.14932 11.1287L7.27799 8L4.14932 4.87133C4.1001 4.82433 4.06078 4.76797 4.03365 4.70556C4.00653 4.64315 3.99215 4.57594 3.99137 4.5079C3.99058 4.43985 4.00341 4.37233 4.02909 4.30931C4.05477 4.24629 4.09278 4.18904 4.1409 4.14092C4.18902 4.0928 4.24628 4.05478 4.3093 4.0291C4.37232 4.00342 4.43984 3.9906 4.50788 3.99138C4.57593 3.99216 4.64313 4.00654 4.70555 4.03367C4.76796 4.06079 4.82432 4.10012 4.87132 4.14933L7.99999 7.278L11.1287 4.14933C11.1757 4.10012 11.232 4.06079 11.2944 4.03367C11.3568 4.00654 11.424 3.99216 11.4921 3.99138C11.5601 3.9906 11.6277 4.00342 11.6907 4.0291C11.7537 4.05478 11.8109 4.0928 11.8591 4.14092C11.9072 4.18904 11.9452 4.24629 11.9709 4.30931C11.9966 4.37233 12.0094 4.43985 12.0086 4.5079C12.0078 4.57594 11.9934 4.64315 11.9663 4.70556C11.9392 4.76797 11.8999 4.82433 11.8507 4.87133L8.72199 8L11.8507 11.1287C11.8999 11.1757 11.9392 11.232 11.9663 11.2944C11.9934 11.3569 12.0078 11.4241 12.0086 11.4921C12.0094 11.5602 11.9966 11.6277 11.9709 11.6907C11.9452 11.7537 11.9072 11.811 11.8591 11.8591C11.8109 11.9072 11.7537 11.9452 11.6907 11.9709C11.6277 11.9966 11.5601 12.0094 11.4921 12.0086C11.424 12.0078 11.3568 11.9935 11.2944 11.9663C11.232 11.9392 11.1757 11.8999 11.1287 11.8507L7.99999 8.722L4.87132 11.8507Z" fill="#31293F"/>
</svg>
