<svg width="40" height="40" viewBox="0 0 40 40" fill="none" xmlns="http://www.w3.org/2000/svg">
<g clip-path="url(#clip0_506_23)">
<path d="M24.9659 20.337L27.2378 18.0651C27.4031 18.6835 27.5 19.3301 27.5 20.0001C27.5 24.1357 24.1356 27.5001 20 27.5001C19.33 27.5001 18.6834 27.4032 18.065 27.2379L20.3368 24.966C21.5377 24.8845 22.6683 24.3706 23.5194 23.5195C24.3705 22.6684 24.8843 21.5378 24.9659 20.337ZM39.8425 19.3929C39.6887 19.1163 37.5081 15.2954 33.2456 12.0573L31.4265 13.8763C34.5347 16.1616 36.504 18.827 37.2793 20.002C35.7978 22.2579 29.9859 30.0001 20 30.0001C18.5025 30.0001 17.11 29.8085 15.7997 29.5029L13.7456 31.557C15.634 32.136 17.7097 32.5001 20 32.5001C33.0853 32.5001 39.5728 21.0926 39.8425 20.6073C39.9458 20.4216 40 20.2126 40 20.0001C40 19.7876 39.9458 19.5786 39.8425 19.3929ZM34.6337 7.13383L7.13371 34.6338C6.88965 34.8779 6.56965 35.0001 6.24996 35.0001C5.93028 35.0001 5.61028 34.8779 5.36622 34.6338C5.25007 34.5178 5.15793 34.3801 5.09507 34.2284C5.0322 34.0768 4.99984 33.9142 4.99984 33.7501C4.99984 33.5859 5.0322 33.4234 5.09507 33.2717C5.15793 33.1201 5.25007 32.9823 5.36622 32.8663L8.86496 29.3676C3.20871 25.9529 0.334652 20.9263 0.157465 20.6073C0.0541954 20.4215 0 20.2125 0 19.9999C0 19.7874 0.0541954 19.5783 0.157465 19.3926C0.427152 18.9076 6.91465 7.50008 20 7.50008C23.3834 7.50008 26.314 8.27195 28.8193 9.4132L32.8662 5.36633C33.3547 4.87789 34.1456 4.87789 34.6337 5.36633C35.1218 5.85477 35.1222 6.6457 34.6337 7.13383ZM10.729 27.5035L13.8937 24.3388C13.0197 23.1126 12.5 21.6173 12.5 20.0001C12.5 15.8645 15.8643 12.5001 20 12.5001C21.6172 12.5001 23.1125 13.0198 24.3387 13.8935L26.8978 11.3345C24.8759 10.5248 22.5784 10.0001 20 10.0001C10.014 10.0001 4.20215 17.7423 2.7209 19.9982C3.66153 21.4238 6.36528 25.0326 10.729 27.5035ZM15.7084 22.5238L22.5237 15.7085C21.7803 15.2695 20.9243 15.0001 20 15.0001C17.2431 15.0001 15 17.2432 15 20.0001C15 20.9245 15.2693 21.7804 15.7084 22.5238Z" fill="#FAFBFD"/>
</g>
<defs>
<clipPath id="clip0_506_23">
<rect width="40" height="40" fill="white"/>
</clipPath>
</defs>
</svg>
