<svg width="16" height="16" viewBox="0 0 16 16" fill="none" xmlns="http://www.w3.org/2000/svg">
<g opacity="0.6" clip-path="url(#clip0_294_142)">
<path d="M14.8947 1.10635C13.4196 -0.36875 11.0192 -0.368168 9.54377 1.10635L6.86832 3.7818C6.81272 3.8355 6.76837 3.89974 6.73786 3.97076C6.70736 4.04178 6.6913 4.11817 6.69063 4.19546C6.68995 4.27275 6.70468 4.34941 6.73395 4.42095C6.76322 4.49249 6.80645 4.55749 6.8611 4.61214C6.91576 4.6668 6.98076 4.71002 7.0523 4.73929C7.12384 4.76856 7.20049 4.78329 7.27779 4.78262C7.35508 4.78195 7.43147 4.76589 7.50249 4.73538C7.57351 4.70487 7.63774 4.66053 7.69144 4.60493L10.3669 1.92948C10.6098 1.6862 10.8986 1.49349 11.2165 1.3625C11.5344 1.23151 11.8751 1.16483 12.2189 1.16631C12.9213 1.16631 13.5791 1.43758 14.0712 1.92977C14.5634 2.42196 14.8347 3.07976 14.8347 3.78209C14.8362 4.12594 14.7695 4.46668 14.6385 4.78458C14.5074 5.10248 14.3146 5.39123 14.0712 5.63412L10.573 9.13328C9.55133 10.1543 7.88966 10.1543 6.86803 9.13328C6.81433 9.07768 6.75009 9.03333 6.67907 9.00282C6.60805 8.97232 6.53167 8.95626 6.45437 8.95559C6.37708 8.95491 6.30042 8.96964 6.22888 8.99891C6.15734 9.02818 6.09235 9.07141 6.03769 9.12606C5.98303 9.18072 5.93981 9.24572 5.91054 9.31726C5.88127 9.3888 5.86654 9.46545 5.86721 9.54275C5.86788 9.62004 5.88394 9.69643 5.91445 9.76745C5.94496 9.83847 5.9893 9.9027 6.0449 9.9564C6.78246 10.694 7.7514 11.0627 8.72035 11.0627C9.6893 11.0627 10.6582 10.694 11.3958 9.9564L14.8947 6.45754C15.6069 5.7456 15.9992 4.79528 15.9992 3.78209C15.9992 2.76861 15.6069 1.81858 14.8947 1.10635Z" fill="#4B2D9F"/>
<path d="M7.89721 11.8085L5.63333 14.0723C5.39039 14.3157 5.10159 14.5085 4.78364 14.6396C4.46569 14.7706 4.1249 14.8373 3.78101 14.8358C3.43712 14.8373 3.09634 14.7706 2.77839 14.6396C2.46045 14.5085 2.17164 14.3157 1.92868 14.0723C0.907345 13.051 0.907345 11.389 1.92868 10.3677L5.22177 7.07461C5.46476 6.83129 5.75358 6.63857 6.07152 6.50757C6.38946 6.37658 6.73022 6.30992 7.07409 6.31144C7.77613 6.31144 8.43393 6.58271 8.92612 7.07461C8.97982 7.13021 9.04405 7.17455 9.11507 7.20506C9.1861 7.23557 9.26248 7.25163 9.33978 7.2523C9.41707 7.25297 9.49372 7.23825 9.56527 7.20898C9.63681 7.17971 9.7018 7.13648 9.75646 7.08182C9.81112 7.02717 9.85434 6.96217 9.88361 6.89063C9.91288 6.81909 9.92761 6.74244 9.92694 6.66514C9.92627 6.58785 9.91021 6.51146 9.8797 6.44044C9.84919 6.36942 9.80484 6.30518 9.74924 6.25148C8.27443 4.77667 5.87404 4.77638 4.39835 6.25148L1.10527 9.54486C0.393329 10.2568 0.000976562 11.2071 0.000976562 12.2203C0.000976562 13.2332 0.393329 14.1835 1.10556 14.8955C1.45626 15.2473 1.87328 15.5262 2.33248 15.7158C2.79167 15.9054 3.28392 16.002 3.78071 16C4.7939 16 5.74422 15.6077 6.45616 14.8955L8.72005 12.6316C8.82463 12.5215 8.88208 12.375 8.88017 12.2232C8.87825 12.0714 8.81711 11.9264 8.70979 11.819C8.60246 11.7116 8.45744 11.6504 8.30564 11.6485C8.15385 11.6465 8.00729 11.7039 7.89721 11.8085Z" fill="#4B2D9F"/>
</g>
<defs>
<clipPath id="clip0_294_142">
<rect width="16" height="16" fill="white"/>
</clipPath>
</defs>
</svg>
