<svg width="18" height="24" viewBox="0 0 18 24" fill="none" xmlns="http://www.w3.org/2000/svg">
<path d="M9.4565 23.6042L9.45649 23.6042C9.21401 23.865 8.78639 23.8654 8.54351 23.6042L8.39703 23.7404L8.5435 23.6042C8.37491 23.4229 6.28295 21.1557 4.2344 18.1945C3.21011 16.7138 2.19953 15.0638 1.44566 13.4173C0.690586 11.7682 0.2 10.1376 0.2 8.69184C0.2 4.01612 4.14121 0.2 9 0.2C13.8587 0.2 17.7999 4.01612 17.8 8.69184C17.8 10.1376 17.3094 11.7682 16.5543 13.4173C15.8005 15.0638 14.7899 16.7138 13.7656 18.1945C11.717 21.1557 9.62509 23.4229 9.4565 23.6042ZM4.27192 8.69184C4.27192 11.2202 6.39934 13.265 9 13.265C11.6006 13.265 13.728 11.2202 13.728 8.69189C13.728 6.16358 11.6006 4.11878 9 4.11878C6.3994 4.11878 4.27192 6.16353 4.27192 8.69184Z" fill="#FAFBFD" stroke="#D8796D" stroke-width="0.4"/>
</svg>
