<svg width="20" height="17" viewBox="0 0 20 17" fill="none" xmlns="http://www.w3.org/2000/svg">
<path d="M17.3312 3.0375H13.4875V2.94375C13.4875 2.475 13.1125 2.1 12.6437 2.1H11.9687V1.81875C11.9687 1.35 11.5937 0.974998 11.125 0.974998H8.87499C8.40624 0.974998 8.03124 1.35 8.03124 1.81875V2.1H7.35624C6.88749 2.1 6.51249 2.475 6.51249 2.94375V3.0375H2.66874C1.46874 3.0375 0.493744 4.0125 0.493744 5.2125V6.525C0.493744 6.7875 0.699994 6.99375 0.962494 6.99375C1.22499 6.99375 1.43124 6.7875 1.43124 6.525V5.2125C1.43124 4.51875 1.99374 3.975 2.66874 3.975H6.51249V4.33125C6.51249 4.8 6.88749 5.175 7.35624 5.175H12.6625C13.1312 5.175 13.5062 4.8 13.5062 4.33125V3.975H17.35C18.0437 3.975 18.5875 4.5375 18.5875 5.2125V14.8125C18.5875 15.5062 18.025 16.05 17.35 16.05H2.66874C1.97499 16.05 1.43124 15.4875 1.43124 14.8125V9C1.43124 8.7375 1.22499 8.53125 0.962494 8.53125C0.699994 8.53125 0.493744 8.7375 0.493744 9V14.8312C0.493744 16.0312 1.46874 17.0062 2.66874 17.0062H17.3312C18.5312 17.0062 19.5062 16.0312 19.5062 14.8312V5.23125C19.5062 4.03125 18.5312 3.0375 17.3312 3.0375ZM12.55 4.2375H7.44999V3.0375H8.12499C8.59374 3.0375 8.96874 2.6625 8.96874 2.19375V1.9125H11.0312V2.19375C11.0312 2.6625 11.4062 3.0375 11.875 3.0375H12.55V4.2375Z" fill="#31293F"/>
<path d="M2.98749 13.875C2.98749 14.1375 3.19374 14.3438 3.45624 14.3438H9.39999C9.66249 14.3438 9.86874 14.1375 9.86874 13.875C9.86874 12.45 9.00624 11.2312 7.74999 10.7062C8.25624 10.3125 8.59374 9.69375 8.59374 9C8.59374 7.8 7.61874 6.84375 6.43749 6.84375C5.25624 6.84375 4.26249 7.8 4.26249 9C4.26249 9.69375 4.59999 10.3125 5.10624 10.7062C3.84999 11.2312 2.98749 12.45 2.98749 13.875ZM6.41874 7.78125C7.09374 7.78125 7.63749 8.325 7.63749 9C7.63749 9.675 7.09374 10.2188 6.41874 10.2188C5.74374 10.2188 5.19999 9.675 5.19999 9C5.19999 8.325 5.74374 7.78125 6.41874 7.78125ZM6.41874 11.3812C7.63749 11.3812 8.64999 12.2625 8.87499 13.4062H3.96249C4.18749 12.2438 5.19999 11.3812 6.41874 11.3812ZM11.0875 11.0625H15.475C15.7375 11.0625 15.9437 10.8562 15.9437 10.5938C15.9437 10.3312 15.7375 10.125 15.475 10.125H11.0875C10.825 10.125 10.6187 10.3312 10.6187 10.5938C10.6187 10.8562 10.825 11.0625 11.0875 11.0625ZM11.0875 8.7375H15.475C15.7375 8.7375 15.9437 8.53125 15.9437 8.26875C15.9437 8.00625 15.7375 7.8 15.475 7.8H11.0875C10.825 7.8 10.6187 8.00625 10.6187 8.26875C10.6187 8.53125 10.825 8.7375 11.0875 8.7375ZM15.5687 12.4313H12.1937C11.9312 12.4313 11.725 12.6375 11.725 12.9C11.725 13.1625 11.9312 13.3688 12.1937 13.3688H15.5687C15.8312 13.3688 16.0375 13.1625 16.0375 12.9C16.0375 12.6563 15.8125 12.4313 15.5687 12.4313Z" fill="#31293F"/>
</svg>
