<svg width="24" height="24" viewBox="0 0 24 24" fill="none" xmlns="http://www.w3.org/2000/svg">
<path d="M20.7803 19.7197L16.3035 15.243C17.4016 13.9064 18.0013 12.2298 18 10.5C18 6.3645 14.6355 3 10.5 3C6.3645 3 3 6.3645 3 10.5C3 14.6355 6.3645 18 10.5 18C12.2985 18 13.95 17.3625 15.243 16.3035L19.7197 20.7803C19.7894 20.8499 19.8721 20.9051 19.963 20.9428C20.054 20.9805 20.1515 20.9999 20.25 20.9999C20.3485 20.9999 20.446 20.9805 20.537 20.9428C20.6279 20.9051 20.7106 20.8499 20.7803 20.7803C20.8499 20.7106 20.9051 20.6279 20.9428 20.537C20.9805 20.446 20.9999 20.3485 20.9999 20.25C20.9999 20.1515 20.9805 20.054 20.9428 19.963C20.9051 19.8721 20.8499 19.7894 20.7803 19.7197ZM4.5 10.5C4.5 7.19175 7.19175 4.5 10.5 4.5C13.8082 4.5 16.5 7.19175 16.5 10.5C16.5 13.8082 13.8082 16.5 10.5 16.5C7.19175 16.5 4.5 13.8082 4.5 10.5Z" fill="#31293F" fill-opacity="0.6"/>
</svg>
