<svg width="24" height="24" viewBox="0 0 24 24" fill="none" xmlns="http://www.w3.org/2000/svg">
<path d="M5.62504 18.75H9.00004C9.19896 18.75 9.38972 18.671 9.53037 18.5303C9.67103 18.3897 9.75004 18.1989 9.75004 18C9.75004 17.8011 9.67103 17.6103 9.53037 17.4697C9.38972 17.329 9.19896 17.25 9.00004 17.25H5.62504C4.76864 17.2448 3.94624 16.9142 3.32451 16.3252C2.70278 15.7362 2.32821 14.9329 2.27671 14.078C2.22521 13.2231 2.50064 12.3807 3.04717 11.7213C3.5937 11.0619 4.37046 10.635 5.22004 10.527C5.3428 10.5103 5.45958 10.4638 5.56017 10.3915C5.66076 10.3192 5.74208 10.2233 5.79701 10.1123C5.85193 10.0012 5.87879 9.87842 5.87522 9.75459C5.87165 9.63076 5.83777 9.5097 5.77654 9.40201C5.38927 8.75269 5.20877 8.00088 5.25904 7.24651C5.33091 6.34483 5.72204 5.49836 6.36212 4.85924C7.0022 4.22012 7.84926 3.83027 8.75104 3.75976C9.63253 3.70106 10.5064 3.95589 11.2181 4.47921C11.9299 5.00252 12.4337 5.76063 12.6405 6.61951C12.6765 6.75535 12.7496 6.87851 12.8515 6.97525C12.9534 7.07199 13.0802 7.13851 13.2178 7.16737C13.3553 7.19623 13.4982 7.1863 13.6304 7.13869C13.7626 7.09108 13.879 7.00767 13.9665 6.89776C14.2187 6.55618 14.5637 6.29422 14.9604 6.14305C15.3572 5.99187 15.789 5.95784 16.2045 6.04501C16.5968 6.12657 16.9602 6.31138 17.2571 6.58035C17.554 6.84933 17.7737 7.1927 17.8935 7.57501C17.989 7.87258 18.0198 8.18711 17.9838 8.49754C17.9479 8.80797 17.846 9.10714 17.685 9.37501C17.6254 9.49307 17.597 9.62441 17.6025 9.75655C17.6079 9.88868 17.6471 10.0172 17.7163 10.13C17.7854 10.2427 17.8822 10.3359 17.9975 10.4006C18.1128 10.4654 18.2428 10.4996 18.375 10.5C19.2701 10.5 20.1286 10.8556 20.7615 11.4885C21.3945 12.1215 21.75 12.9799 21.75 13.875C21.75 14.7701 21.3945 15.6286 20.7615 16.2615C20.1286 16.8944 19.2701 17.25 18.375 17.25H15C14.8011 17.25 14.6104 17.329 14.4697 17.4697C14.3291 17.6103 14.25 17.8011 14.25 18C14.25 18.1989 14.3291 18.3897 14.4697 18.5303C14.6104 18.671 14.8011 18.75 15 18.75H18.375C19.575 18.7442 20.7306 18.296 21.6207 17.4913C22.5108 16.6866 23.0729 15.5818 23.1993 14.3886C23.3256 13.1953 23.0075 11.9973 22.3057 11.024C21.604 10.0507 20.5679 9.37033 19.3958 9.11326C19.5574 8.45691 19.5335 7.76858 19.3268 7.12501C19.1544 6.56977 18.8547 6.06244 18.4517 5.6434C18.0487 5.22435 17.5534 4.90516 17.0053 4.71122C16.4572 4.51728 15.8714 4.45395 15.2945 4.52626C14.7176 4.59857 14.1656 4.80454 13.6823 5.12776C13.219 4.20891 12.4954 3.44681 11.6018 2.93652C10.7082 2.42622 9.6841 2.19033 8.65729 2.25826C7.39322 2.35658 6.20572 2.90271 5.30836 3.79842C4.41101 4.69412 3.86269 5.88062 3.76204 7.14451C3.71431 7.86268 3.81647 8.58294 4.06204 9.25951C2.96898 9.63116 2.0433 10.3787 1.44981 11.369C0.856317 12.3593 0.633545 13.528 0.821156 14.6672C1.00877 15.8064 1.59458 16.842 2.4743 17.5897C3.35402 18.3373 4.47053 18.7485 5.62504 18.75Z" fill="#4B2D9F"/>
<path d="M12.0001 21.7501C12.199 21.7501 12.3898 21.6711 12.5304 21.5305C12.6711 21.3898 12.7501 21.199 12.7501 21.0001V13.8106L14.4699 15.5304C14.6116 15.669 14.8019 15.7466 15.0001 15.7466C15.1983 15.7466 15.3887 15.669 15.5304 15.5304C15.671 15.3897 15.75 15.199 15.75 15.0001C15.75 14.8013 15.671 14.6105 15.5304 14.4699L12.5304 11.4699C12.3877 11.3326 12.1974 11.2559 11.9994 11.2559C11.8014 11.2559 11.611 11.3326 11.4684 11.4699L8.46837 14.4699C8.32777 14.6105 8.24878 14.8013 8.24878 15.0001C8.24878 15.199 8.32777 15.3897 8.46837 15.5304C8.61061 15.6679 8.80074 15.7448 8.99862 15.7448C9.1965 15.7448 9.38663 15.6679 9.52887 15.5304L11.2501 13.8106V21.0001C11.2501 21.199 11.3291 21.3898 11.4698 21.5305C11.6104 21.6711 11.8012 21.7501 12.0001 21.7501Z" fill="#4B2D9F"/>
</svg>
