<svg width="24" height="24" viewBox="0 0 24 24" fill="none" xmlns="http://www.w3.org/2000/svg">
<g opacity="0.6">
<path d="M18 6.75C18 10.0582 15.3083 12.75 12 12.75C8.69175 12.75 6 10.0582 6 6.75C6 3.44175 8.69175 0.75 12 0.75C15.3083 0.75 18 3.44175 18 6.75ZM8.18025 13.5225C6.41977 14.2717 4.91872 15.5224 3.86418 17.1189C2.80964 18.7153 2.24826 20.5867 2.25 22.5C2.25 22.6989 2.32902 22.8897 2.46967 23.0303C2.61032 23.171 2.80109 23.25 3 23.25M21 23.25C21.1989 23.25 21.3897 23.171 21.5303 23.0303C21.671 22.8897 21.75 22.6989 21.75 22.5C21.75 18.5835 19.422 15.06 15.8198 13.5225C15.7227 13.4806 15.6178 13.4599 15.5122 13.4618C15.4065 13.4637 15.3024 13.4883 15.207 13.5338C14.2031 14.0033 13.1083 14.2467 12 14.2467C10.8917 14.2467 9.79692 14.0033 8.793 13.5338C8.69758 13.4883 8.59353 13.4637 8.48784 13.4618C8.38216 13.4599 8.27728 13.4806 8.18025 13.5225C6.41977 14.2717 4.91872 15.5224 3.86418 17.1189C2.80964 18.7153 2.24826 20.5867 2.25 22.5C2.25 22.6989 2.32902 22.8897 2.46967 23.0303C2.61032 23.171 2.80109 23.25 3 23.25H21Z" fill="#31293F"/>
</g>
</svg>
