<svg width="24" height="24" viewBox="0 0 24 24" fill="none" xmlns="http://www.w3.org/2000/svg">
<g clip-path="url(#clip0_119_84)" filter="url(#filter0_d_119_84)">
<path d="M16.25 0H7.75C5.67893 0 4 1.67893 4 3.75V12.25C4 14.3211 5.67893 16 7.75 16H16.25C18.3211 16 20 14.3211 20 12.25V3.75C20 1.67893 18.3211 0 16.25 0Z" fill="url(#paint0_radial_119_84)"/>
<path d="M16.25 0H7.75C5.67893 0 4 1.67893 4 3.75V12.25C4 14.3211 5.67893 16 7.75 16H16.25C18.3211 16 20 14.3211 20 12.25V3.75C20 1.67893 18.3211 0 16.25 0Z" fill="url(#paint1_radial_119_84)"/>
<path d="M12.0006 1.75C10.3032 1.75 10.0901 1.75744 9.4235 1.78775C8.75813 1.81825 8.30394 1.92356 7.90656 2.07812C7.49544 2.23775 7.14675 2.45131 6.79938 2.79881C6.45169 3.14625 6.23813 3.49494 6.078 3.90587C5.923 4.30338 5.81756 4.75775 5.78762 5.42281C5.75781 6.0895 5.75 6.30263 5.75 8.00006C5.75 9.6975 5.7575 9.90987 5.78775 10.5765C5.81838 11.2419 5.92369 11.6961 6.07812 12.0934C6.23787 12.5046 6.45144 12.8533 6.79894 13.2006C7.14625 13.5483 7.49494 13.7624 7.90575 13.922C8.30344 14.0766 8.75769 14.1819 9.42294 14.2124C10.0896 14.2427 10.3025 14.2501 11.9998 14.2501C13.6974 14.2501 13.9097 14.2427 14.5764 14.2124C15.2417 14.1819 15.6964 14.0766 16.0941 13.922C16.5051 13.7624 16.8532 13.5483 17.2005 13.2006C17.5482 12.8533 17.7617 12.5046 17.9219 12.0936C18.0755 11.6961 18.181 11.2417 18.2122 10.5766C18.2422 9.91 18.25 9.6975 18.25 8.00006C18.25 6.30263 18.2422 6.08962 18.2122 5.42294C18.181 4.75756 18.0755 4.30344 17.9219 3.90606C17.7617 3.49494 17.5482 3.14625 17.2005 2.79881C16.8529 2.45119 16.5052 2.23762 16.0938 2.07819C15.6953 1.92356 15.2409 1.81819 14.5755 1.78775C13.9088 1.75744 13.6966 1.75 11.9986 1.75H12.0006ZM11.4399 2.87631C11.6063 2.87606 11.792 2.87631 12.0006 2.87631C13.6694 2.87631 13.8671 2.88231 14.5261 2.91225C15.1355 2.94012 15.4663 3.04194 15.6866 3.1275C15.9783 3.24075 16.1862 3.37619 16.4048 3.595C16.6236 3.81375 16.7589 4.02206 16.8725 4.31375C16.9581 4.53375 17.06 4.8645 17.0878 5.47388C17.1177 6.13275 17.1242 6.33062 17.1242 7.99862C17.1242 9.66663 17.1177 9.86456 17.0878 10.5234C17.0599 11.1327 16.9581 11.4635 16.8725 11.6836C16.7593 11.9753 16.6236 12.1829 16.4048 12.4016C16.1861 12.6203 15.9784 12.7557 15.6866 12.869C15.4665 12.9549 15.1355 13.0565 14.5261 13.0844C13.8673 13.1143 13.6694 13.1208 12.0006 13.1208C10.3317 13.1208 10.1339 13.1143 9.47506 13.0844C8.86569 13.0563 8.53494 12.9544 8.31444 12.8689C8.02281 12.7556 7.81444 12.6202 7.59569 12.4014C7.37694 12.1827 7.24156 11.9749 7.128 11.6831C7.04244 11.463 6.9405 11.1322 6.91275 10.5229C6.88281 9.864 6.87681 9.66613 6.87681 7.99706C6.87681 6.32806 6.88281 6.13119 6.91275 5.47231C6.94062 4.86294 7.04244 4.53219 7.128 4.31187C7.24131 4.02019 7.37694 3.81188 7.59575 3.59313C7.8145 3.37438 8.02281 3.23894 8.3145 3.12544C8.53481 3.0395 8.86569 2.93794 9.47506 2.90994C10.0516 2.88387 10.2751 2.87606 11.4399 2.87475V2.87631ZM15.3368 3.91406C14.9228 3.91406 14.5868 4.24969 14.5868 4.66381C14.5868 5.07788 14.9228 5.41381 15.3368 5.41381C15.7509 5.41381 16.0868 5.07788 16.0868 4.66381C16.0868 4.24975 15.7509 3.91381 15.3368 3.91381V3.91406ZM12.0006 4.79038C10.2281 4.79038 8.79094 6.2275 8.79094 8.00006C8.79094 9.77262 10.2281 11.2091 12.0006 11.2091C13.7731 11.2091 15.2098 9.77262 15.2098 8.00006C15.2098 6.22756 13.773 4.79038 12.0004 4.79038H12.0006ZM12.0006 5.91669C13.1511 5.91669 14.0839 6.84938 14.0839 8.00006C14.0839 9.15063 13.1511 10.0834 12.0006 10.0834C10.8499 10.0834 9.91725 9.15063 9.91725 8.00006C9.91725 6.84938 10.8499 5.91669 12.0006 5.91669Z" fill="white"/>
</g>
<defs>
<filter id="filter0_d_119_84" x="0" y="0" width="24" height="24" filterUnits="userSpaceOnUse" color-interpolation-filters="sRGB">
<feFlood flood-opacity="0" result="BackgroundImageFix"/>
<feColorMatrix in="SourceAlpha" type="matrix" values="0 0 0 0 0 0 0 0 0 0 0 0 0 0 0 0 0 0 127 0" result="hardAlpha"/>
<feOffset dy="4"/>
<feGaussianBlur stdDeviation="2"/>
<feComposite in2="hardAlpha" operator="out"/>
<feColorMatrix type="matrix" values="0 0 0 0 0 0 0 0 0 0 0 0 0 0 0 0 0 0 0.25 0"/>
<feBlend mode="normal" in2="BackgroundImageFix" result="effect1_dropShadow_119_84"/>
<feBlend mode="normal" in="SourceGraphic" in2="effect1_dropShadow_119_84" result="shape"/>
</filter>
<radialGradient id="paint0_radial_119_84" cx="0" cy="0" r="1" gradientUnits="userSpaceOnUse" gradientTransform="translate(8.25 17.2323) rotate(-90) scale(15.8572 14.7484)">
<stop stop-color="#FFDD55"/>
<stop offset="0.1" stop-color="#FFDD55"/>
<stop offset="0.5" stop-color="#FF543E"/>
<stop offset="1" stop-color="#C837AB"/>
</radialGradient>
<radialGradient id="paint1_radial_119_84" cx="0" cy="0" r="1" gradientUnits="userSpaceOnUse" gradientTransform="translate(1.31994 1.15256) rotate(78.681) scale(7.08825 29.218)">
<stop stop-color="#3771C8"/>
<stop offset="0.128" stop-color="#3771C8"/>
<stop offset="1" stop-color="#6600FF" stop-opacity="0"/>
</radialGradient>
<clipPath id="clip0_119_84">
<rect width="16" height="16" fill="white" transform="translate(4)"/>
</clipPath>
</defs>
</svg>
