<svg width="24" height="24" viewBox="0 0 24 24" fill="none" xmlns="http://www.w3.org/2000/svg">
<g clip-path="url(#clip0_295_254)">
<path d="M17.9998 0H6.0001C2.70047 0 0.000244141 2.70023 0.000244141 5.99985V18.0001C0.000244141 21.2989 2.70047 24 6.0001 24H17.9998C21.2994 24 23.9997 21.2989 23.9997 18.0001V5.99985C23.9997 2.70023 21.2994 0 17.9998 0ZM21.9996 18.0001C21.9996 20.2051 20.206 22 17.9998 22H6.0001C3.79486 22 2.00029 20.2051 2.00029 18.0001V5.99985C2.00029 3.79432 3.79486 2.00005 6.0001 2.00005H17.9998C20.206 2.00005 21.9996 3.79432 21.9996 5.99985V18.0001Z" fill="#4B2D9F"/>
<path d="M18.5007 6.99968C19.3291 6.99968 20.0007 6.32813 20.0007 5.49972C20.0007 4.67131 19.3291 3.99976 18.5007 3.99976C17.6723 3.99976 17.0007 4.67131 17.0007 5.49972C17.0007 6.32813 17.6723 6.99968 18.5007 6.99968Z" fill="#4B2D9F"/>
<path d="M11.9999 5.99976C8.68552 5.99976 6 8.68557 6 11.9996C6 15.3124 8.68552 18 11.9999 18C15.3132 18 17.9997 15.3124 17.9997 11.9996C17.9997 8.68557 15.3132 5.99976 11.9999 5.99976ZM11.9999 16C9.79098 16 8.00005 14.2091 8.00005 11.9996C8.00005 9.79015 9.79098 7.9998 11.9999 7.9998C14.2087 7.9998 15.9997 9.79015 15.9997 11.9996C15.9997 14.2091 14.2087 16 11.9999 16Z" fill="#4B2D9F"/>
</g>
<defs>
<clipPath id="clip0_295_254">
<rect width="24" height="24" fill="white"/>
</clipPath>
</defs>
</svg>
